<svg width="181" height="80" viewBox="0 0 181 80" fill="none" xmlns="http://www.w3.org/2000/svg">
<path d="M46.629 28.0788C46.9805 28.4304 47.178 28.9072 47.178 29.4044C47.178 29.9016 46.9805 30.3784 46.629 30.73L37.3478 40.0113L46.629 49.2925C46.9706 49.6461 47.1595 50.1198 47.1553 50.6114C47.151 51.103 46.9538 51.5733 46.6062 51.9209C46.2585 52.2686 45.7883 52.4658 45.2966 52.47C44.805 52.4743 44.3314 52.2853 43.9778 51.9438L33.3709 41.3369C33.0194 40.9853 32.8219 40.5084 32.8219 40.0113C32.8219 39.5141 33.0194 39.0372 33.3709 38.6856L43.9778 28.0788C44.3294 27.7273 44.8062 27.5298 45.3034 27.5298C45.8006 27.5298 46.2774 27.7273 46.629 28.0788Z" fill="black"/>
<rect x="-0.5" y="0.5" width="79" height="79" rx="39.5" transform="matrix(-1 0 0 1 79 0)" stroke="black"/>
<rect x="101" width="80" height="80" rx="40" fill="#D7F5DC"/>
<path d="M134.371 28.0788C134.019 28.4304 133.822 28.9072 133.822 29.4044C133.822 29.9016 134.019 30.3784 134.371 30.73L143.652 40.0113L134.371 49.2925C134.029 49.6461 133.84 50.1198 133.845 50.6114C133.849 51.103 134.046 51.5733 134.394 51.9209C134.741 52.2686 135.212 52.4658 135.703 52.47C136.195 52.4743 136.669 52.2853 137.022 51.9438L147.629 41.3369C147.981 40.9853 148.178 40.5084 148.178 40.0113C148.178 39.5141 147.981 39.0372 147.629 38.6856L137.022 28.0788C136.671 27.7273 136.194 27.5298 135.697 27.5298C135.199 27.5298 134.723 27.7273 134.371 28.0788Z" fill="black"/>
</svg>
