<svg width="206" height="29" viewBox="0 0 206 29" fill="none" xmlns="http://www.w3.org/2000/svg">
<path d="M39.8976 1.0817L32.724 28.6001H24.6096L20.2192 10.4897L15.672 28.6001H7.55758L0.579976 1.0817H7.75358L11.7128 21.1129L16.6128 1.0817H23.9824L28.6864 21.1129L32.6848 1.0817H39.8976ZM49.9625 6.4521V12.0185H58.9393V17.1929H49.9625V23.2297H60.1153V28.6001H43.2593V1.0817H60.1153V6.4521H49.9625ZM81.1271 14.4881C82.7212 14.8278 84.0018 15.6249 84.9687 16.8793C85.9356 18.1076 86.4191 19.5188 86.4191 21.1129C86.4191 23.4126 85.609 25.242 83.9887 26.6009C82.3946 27.9337 80.1602 28.6001 77.2855 28.6001H64.4671V1.0817H76.8543C79.6506 1.0817 81.8327 1.72196 83.4007 3.00249C84.9948 4.28303 85.7919 6.0209 85.7919 8.2161C85.7919 9.83636 85.3607 11.1822 84.4983 12.2537C83.662 13.3252 82.5383 14.07 81.1271 14.4881ZM71.1703 12.2145H75.5607C76.6583 12.2145 77.4946 11.9793 78.0695 11.5089C78.6706 11.0124 78.9711 10.2937 78.9711 9.3529C78.9711 8.4121 78.6706 7.69343 78.0695 7.1969C77.4946 6.70036 76.6583 6.4521 75.5607 6.4521H71.1703V12.2145ZM76.1095 23.1905C77.2332 23.1905 78.0956 22.9422 78.6967 22.4457C79.3239 21.923 79.6375 21.1782 79.6375 20.2113C79.6375 19.2444 79.3108 18.4865 78.6575 17.9377C78.0303 17.3889 77.1548 17.1145 76.0311 17.1145H71.1703V23.1905H76.1095ZM105.317 23.4257H114.098V28.6001H98.614V1.0817H105.317V23.4257ZM130.31 28.8745C127.722 28.8745 125.344 28.2734 123.175 27.0713C121.032 25.8692 119.321 24.1966 118.04 22.0537C116.786 19.8846 116.158 17.4542 116.158 14.7625C116.158 12.0708 116.786 9.65343 118.04 7.5105C119.321 5.36756 121.032 3.69503 123.175 2.4929C125.344 1.29076 127.722 0.689697 130.31 0.689697C132.897 0.689697 135.262 1.29076 137.405 2.4929C139.574 3.69503 141.273 5.36756 142.501 7.5105C143.755 9.65343 144.382 12.0708 144.382 14.7625C144.382 17.4542 143.755 19.8846 142.501 22.0537C141.246 24.1966 139.548 25.8692 137.405 27.0713C135.262 28.2734 132.897 28.8745 130.31 28.8745ZM130.31 22.7593C132.505 22.7593 134.256 22.0276 135.562 20.5641C136.895 19.1006 137.562 17.1668 137.562 14.7625C137.562 12.3321 136.895 10.3982 135.562 8.9609C134.256 7.49743 132.505 6.7657 130.31 6.7657C128.088 6.7657 126.311 7.48436 124.978 8.9217C123.672 10.359 123.018 12.306 123.018 14.7625C123.018 17.1929 123.672 19.1398 124.978 20.6033C126.311 22.0406 128.088 22.7593 130.31 22.7593ZM166.379 9.7841C165.882 8.86943 165.164 8.1769 164.223 7.7065C163.308 7.20996 162.224 6.9617 160.969 6.9617C158.8 6.9617 157.062 7.68036 155.756 9.1177C154.449 10.5289 153.796 12.4236 153.796 14.8017C153.796 17.3366 154.475 19.3228 155.834 20.7601C157.219 22.1713 159.114 22.8769 161.518 22.8769C163.164 22.8769 164.549 22.4588 165.673 21.6225C166.823 20.7862 167.659 19.5841 168.182 18.0161H159.676V13.0769H174.258V19.3097C173.761 20.9822 172.912 22.5372 171.71 23.9745C170.534 25.4118 169.031 26.5748 167.202 27.4633C165.373 28.3518 163.308 28.7961 161.008 28.7961C158.291 28.7961 155.86 28.2081 153.717 27.0321C151.6 25.83 149.941 24.1705 148.739 22.0537C147.563 19.9369 146.975 17.5196 146.975 14.8017C146.975 12.0838 147.563 9.6665 148.739 7.5497C149.941 5.40676 151.6 3.7473 153.717 2.5713C155.834 1.36916 158.251 0.768096 160.969 0.768096C164.262 0.768096 167.032 1.56516 169.28 3.1593C171.553 4.75343 173.056 6.9617 173.788 9.7841H166.379ZM190.985 28.8745C188.398 28.8745 186.02 28.2734 183.851 27.0713C181.708 25.8692 179.996 24.1966 178.716 22.0537C177.461 19.8846 176.834 17.4542 176.834 14.7625C176.834 12.0708 177.461 9.65343 178.716 7.5105C179.996 5.36756 181.708 3.69503 183.851 2.4929C186.02 1.29076 188.398 0.689697 190.985 0.689697C193.573 0.689697 195.938 1.29076 198.081 2.4929C200.25 3.69503 201.948 5.36756 203.177 7.5105C204.431 9.65343 205.058 12.0708 205.058 14.7625C205.058 17.4542 204.431 19.8846 203.177 22.0537C201.922 24.1966 200.224 25.8692 198.081 27.0713C195.938 28.2734 193.573 28.8745 190.985 28.8745ZM190.985 22.7593C193.181 22.7593 194.932 22.0276 196.238 20.5641C197.571 19.1006 198.237 17.1668 198.237 14.7625C198.237 12.3321 197.571 10.3982 196.238 8.9609C194.932 7.49743 193.181 6.7657 190.985 6.7657C188.764 6.7657 186.987 7.48436 185.654 8.9217C184.348 10.359 183.694 12.306 183.694 14.7625C183.694 17.1929 184.348 19.1398 185.654 20.6033C186.987 22.0406 188.764 22.7593 190.985 22.7593Z" fill="black"/>
</svg>
